<svg width="0" height="0" class="hidden">
  <symbol xmlns="http://www.w3.org/2000/svg" viewBox="0 0 24 24" id="chevron-down">
    <path d="M7.41,8.58L12,13.17L16.59,8.58L18,10L12,16L6,10L7.41,8.58Z"></path>
  </symbol>
  <symbol xmlns="http://www.w3.org/2000/svg" viewBox="0 0 24 24" id="translate">
    <path d="M12.87,15.07L10.33,12.56L10.36,12.53C12.1,10.59 13.34,8.36 14.07,6H17V4H10V2H8V4H1V6H12.17C11.5,7.92 10.44,9.75 9,11.35C8.07,10.32 7.3,9.19 6.69,8H4.69C5.42,9.63 6.42,11.17 7.67,12.56L2.58,17.58L4,19L9,14L12.11,17.11L12.87,15.07M18.5,10H16.5L12,22H14L15.12,19H19.87L21,22H23L18.5,10M15.88,17L17.5,12.67L19.12,17H15.88Z"></path>
  </symbol>
  <symbol xmlns="http://www.w3.org/2000/svg" viewBox="0 0 24 24" id="moon-waning-crescent">
    <path d="M2 12A10 10 0 0 0 15 21.54A10 10 0 0 1 15 2.46A10 10 0 0 0 2 12Z"></path>
  </symbol>
  <symbol xmlns="http://www.w3.org/2000/svg" viewBox="0 0 24 24" id="white-balance-sunny">
    <path d="M3.55 19.09L4.96 20.5L6.76 18.71L5.34 17.29M12 6C8.69 6 6 8.69 6 12S8.69 18 12 18 18 15.31 18 12C18 8.68 15.31 6 12 6M20 13H23V11H20M17.24 18.71L19.04 20.5L20.45 19.09L18.66 17.29M20.45 5L19.04 3.6L17.24 5.39L18.66 6.81M13 1H11V4H13M6.76 5.39L4.96 3.6L3.55 5L5.34 6.81L6.76 5.39M1 13H4V11H1M13 20H11V23H13"></path>
  </symbol>
</svg>
